<?xml version="1.0" standalone="no"?> <!DOCTYPE svg PUBLIC "-//W3C//DTD SVG 20010904//EN" "http://www.w3.org/TR/2001/REC-SVG-20010904/DTD/svg10.dtd"> <svg version="1.0" xmlns="http://www.w3.org/2000/svg" width="300" height="295" viewBox="50 140 300 295" preserveAspectRatio="xMidYMid meet"> <g transform="translate(0.000000,600.000000) scale(0.100000,-0.100000)" fill="#CBFF00" stroke="none"> <path d="M1825 4419 c-522 -71 -960 -439 -1104 -925 -42 -146 -54 -239 -48 -404 8 -212 44 -364 129 -535 109 -219 299 -421 517 -549 326 -191 737 -235 1096 -119 473 153 810 530 900 1008 23 120 23 340 1 460 -33 174 -102 345 -203 498 -61 94 -237 270 -336 336 -155 104 -339 181 -518 216 -100 20 -336 28 -434 14z m390 -50 c268 -44 491 -153 684 -334 255 -241 391 -554 391 -904 0 -217 -43 -394 -141 -580 -180 -339 -508 -583 -892 -662 -202 -42 -475 -24 -671 43 -187 64 -365 176 -506 318 -212 214 -329 459 -362 757 -20 186 15 435 82 580 11 24 20 46 20 51 0 4 23 48 51 97 206 359 573 599 986 644 96 10 263 6 358 -10z"/> <path d="M2410 4113 c-83 -11 -150 -83 -150 -159 0 -77 32 -129 102 -165 128 -65 253 50 224 205 -6 33 -8 35 -32 24 -53 -25 -77 -98 -53 -167 10 -28 9 -34 -7 -46 -17 -12 -20 -10 -31 28 -7 23 -13 57 -13 76 0 33 35 121 48 121 4 0 18 9 31 19 l24 18 -34 18 c-46 23 -79 31 -109 28z m65 -32 c6 -1 11 -11 12 -22 1 -12 -1 -19 -4 -15 -9 8 -32 -26 -33 -47 0 -11 -4 -15 -12 -11 -8 5 -9 0 -6 -14 4 -12 3 -22 -1 -22 -8 0 3 -105 14 -131 11 -28 -31 -29 -85 -1 -27 14 -48 28 -45 30 2 3 -5 18 -16 34 -31 42 -19 120 24 160 17 15 37 28 44 28 7 0 13 5 13 11 0 7 15 9 43 5 23 -3 47 -5 52 -5z m92 -146 c3 -26 1 -45 -5 -45 -5 0 -13 -11 -16 -25 -8 -31 -25 -33 -28 -2 -5 65 -1 84 17 103 11 12 22 20 24 18 2 -2 6 -24 8 -49z"/> <path d="M1172 3628 c-26 -13 -39 -54 -25 -77 5 -9 33 -24 61 -35 35 -12 49 -22 45 -32 -6 -17 -31 -18 -69 -4 -19 7 -30 7 -40 -1 -22 -18 -17 -25 25 -37 56 -17 77 -15 108 12 24 21 26 27 18 52 -8 22 -22 33 -62 47 -36 13 -50 23 -46 33 6 16 54 19 69 4 7 -7 16 -4 28 9 16 18 16 19 -15 30 -39 13 -67 13 -97 -1z"/> <path d="M1342 3535 l3 -100 78 -3 c74 -3 77 -2 77 20 0 22 -3 23 -55 20 -54 -4 -55 -3 -55 23 0 27 1 27 50 23 47 -5 50 -4 50 19 0 22 -3 23 -50 19 -48 -5 -50 -4 -50 20 0 25 2 26 55 22 50 -3 55 -1 55 17 0 19 -6 21 -80 21 l-81 0 3 -101z m48 1 c0 -3 -4 -8 -10 -11 -5 -3 -10 -1 -10 4 0 6 5 11 10 11 6 0 10 -2 10 -4z"/> <path d="M1550 3534 l0 -104 25 0 c22 0 25 4 25 35 0 28 4 35 19 35 11 0 28 -15 41 -35 15 -24 29 -35 46 -35 30 0 30 5 -2 47 -19 25 -21 33 -10 33 18 0 36 30 36 58 0 43 -30 61 -107 65 l-73 5 0 -104z m128 37 c4 -28 -12 -41 -50 -41 -25 0 -28 3 -28 36 0 35 1 35 38 32 30 -2 38 -7 40 -27z"/> <path d="M1750 3637 c0 -1 19 -47 43 -102 37 -85 47 -100 66 -100 20 0 30 15 67 100 24 55 44 101 44 103 0 2 -12 2 -27 0 -24 -3 -31 -12 -53 -70 -14 -37 -28 -68 -31 -68 -3 0 -12 19 -19 43 -21 72 -38 97 -65 97 -14 0 -25 -1 -25 -3z"/> <path d="M2000 3533 l0 -103 80 0 c73 0 80 2 80 20 0 18 -7 20 -55 20 -52 0 -55 1 -55 26 0 24 2 25 48 23 43 -3 47 -1 50 20 4 22 2 23 -47 16 -50 -7 -51 -6 -51 19 0 25 2 26 55 26 47 0 55 3 55 19 0 17 -8 19 -80 18 l-80 0 0 -104z"/> <path d="M2300 3635 c0 0 -1 -45 -2 -100 -1 -95 0 -100 21 -103 18 -3 21 1 21 37 l0 41 50 0 c43 0 50 3 50 20 0 17 -7 20 -50 20 -47 0 -50 2 -50 26 0 24 2 25 53 23 46 -3 52 -1 55 17 3 19 -2 20 -73 20 -41 -1 -75 -1 -75 -1z m40 -109 c0 -3 -4 -8 -10 -11 -5 -3 -10 -1 -10 4 0 6 5 11 10 11 6 0 10 -2 10 -4z"/> <path d="M2525 3628 c-60 -33 -75 -115 -29 -161 80 -81 218 -5 183 100 -19 59 -100 91 -154 61z m95 -48 c53 -53 -14 -136 -75 -96 -18 12 -25 26 -25 48 0 61 59 89 100 48z"/> <path d="M2730 3637 c0 -1 -2 -48 -3 -105 l-2 -103 25 3 c22 3 25 7 22 36 -5 44 24 43 61 -3 18 -23 36 -35 52 -35 22 0 38 19 18 20 -5 0 -16 12 -26 25 -17 24 -17 25 3 45 27 27 26 75 -2 94 -18 11 -147 31 -148 23z m121 -59 c10 -18 8 -24 -7 -35 -10 -7 -30 -13 -46 -13 -25 0 -28 3 -28 35 0 33 2 35 35 35 25 0 37 -6 46 -22z m-86 -57 c3 -5 1 -12 -5 -16 -5 -3 -10 1 -10 9 0 18 6 21 15 7z"/> <path d="M1000 3298 c-66 -18 -106 -80 -94 -143 9 -47 42 -74 130 -104 83 -28 107 -49 85 -75 -20 -23 -107 -21 -156 4 -22 11 -40 20 -41 20 -6 0 -23 -93 -19 -100 10 -16 106 -40 162 -40 109 0 173 53 173 144 0 42 -4 53 -34 81 -22 21 -55 37 -100 49 -37 10 -74 25 -82 33 -13 14 -13 18 2 34 21 23 66 24 124 4 23 -8 43 -15 45 -15 6 0 25 82 20 89 -7 13 -97 31 -143 30 -20 0 -53 -5 -72 -11z m153 -31 c-4 -6 0 -8 9 -4 22 8 30 -3 13 -19 -9 -10 -21 -11 -37 -6 -35 13 -108 14 -108 2 0 -5 -5 -10 -11 -10 -5 0 -7 6 -3 13 4 7 3 9 -2 4 -9 -9 -10 -13 -13 -43 0 -9 -6 -12 -13 -8 -6 4 -4 -3 5 -16 12 -17 14 -28 6 -43 -8 -14 -8 -18 0 -12 7 4 19 1 28 -7 14 -11 16 -11 8 1 -5 10 -4 12 3 7 7 -4 20 -9 29 -11 24 -5 83 -26 111 -38 13 -6 20 -17 17 -24 -2 -8 -1 -12 4 -9 5 3 11 -4 15 -17 3 -12 2 -23 -3 -25 -5 -2 -7 -11 -4 -21 3 -12 -8 -31 -31 -55 -20 -20 -40 -36 -44 -36 -4 0 -8 14 -9 30 -1 17 1 30 6 30 12 0 33 52 24 59 -4 3 -13 15 -19 26 -6 10 -26 23 -45 28 -19 5 -40 14 -48 20 -12 10 -13 9 -7 -1 5 -8 -11 -3 -35 10 -33 19 -47 34 -57 63 -10 29 -10 41 -1 49 9 8 10 7 4 -3 -6 -10 -4 -12 4 -7 9 6 9 11 0 22 -9 11 -9 14 0 14 7 0 9 5 5 12 -4 7 -3 8 4 4 7 -4 21 2 32 12 16 15 36 19 95 19 48 0 72 -4 68 -10z m-168 -326 c3 -6 13 -10 23 -10 30 1 105 -10 110 -16 3 -3 1 -10 -6 -17 -17 -17 -88 -13 -107 6 -21 20 -26 20 -18 0 5 -14 3 -14 -16 -3 -12 8 -19 19 -17 26 3 8 -1 10 -12 7 -14 -5 -15 -4 -2 5 19 13 37 14 45 2z"/> <path d="M970 3176 c0 -2 8 -10 18 -17 15 -13 16 -12 3 4 -13 16 -21 21 -21 13z"/> <path d="M965 3131 c-3 -5 -2 -12 3 -15 5 -3 9 1 9 9 0 17 -3 19 -12 6z"/> <path d="M1960 3083 l0 -223 125 0 125 0 0 55 0 55 -65 0 -65 0 0 164 0 164 -60 4 -60 3 0 -222z m91 154 c0 -12 0 -76 1 -142 0 -143 6 -155 80 -155 40 0 48 -3 48 -19 0 -26 -14 -29 -113 -30 l-86 -1 4 73 c9 161 10 177 3 177 -4 0 -7 30 -7 66 0 53 3 65 15 60 8 -3 14 -1 14 5 0 21 40 -12 41 -34z"/> <path d="M2368 3303 l-128 -4 0 -219 0 -220 135 0 135 0 -1 50 -2 50 -76 0 -76 0 0 40 0 40 65 0 65 0 -3 47 -4 48 -49 -3 c-68 -5 -76 -1 -71 42 l4 36 69 -5 69 -4 0 54 c0 30 -1 54 -2 53 -2 -1 -60 -4 -130 -5z m-23 -33 c-2 -4 14 -4 35 0 23 4 43 3 46 -2 3 -5 15 -8 27 -6 14 2 23 -3 25 -16 4 -17 -2 -18 -68 -14 -40 2 -67 2 -60 0 7 -3 4 -9 -8 -18 -42 -29 -2 -118 52 -113 44 3 63 -2 63 -16 0 -11 -12 -15 -48 -15 -47 0 -78 -17 -80 -43 -1 -7 -3 -24 -4 -38 -4 -33 21 -48 82 -50 50 -2 73 -13 73 -33 0 -9 -27 -13 -87 -14 -133 -3 -123 -19 -121 184 0 121 4 179 13 187 13 13 68 20 60 7z"/> <path d="M2655 3301 c-81 -14 -118 -54 -118 -127 0 -55 33 -94 101 -119 67 -25 92 -43 92 -65 0 -45 -96 -52 -151 -11 -16 12 -30 21 -32 21 -2 0 -4 -27 -4 -59 l-1 -59 43 -11 c62 -16 151 -14 185 4 33 17 70 61 70 84 0 8 -9 45 -21 81 l-21 66 -74 28 c-53 19 -74 32 -74 45 0 41 52 53 116 26 32 -13 35 -13 40 3 3 9 12 29 20 43 13 26 13 27 -29 37 -66 17 -99 20 -142 13z m127 -37 c14 -4 15 -8 5 -19 -8 -8 -18 -10 -29 -4 -9 5 -24 6 -34 2 -12 -4 -15 -3 -10 5 4 7 2 12 -3 12 -6 0 -11 -5 -11 -11 0 -6 -8 -9 -17 -7 -20 4 -63 -35 -63 -56 0 -29 43 -66 95 -82 48 -15 52 -19 37 -30 -15 -12 -15 -12 6 -7 13 3 22 2 20 -3 -1 -5 5 -22 14 -39 8 -16 14 -41 13 -55 -2 -14 -4 -28 -4 -32 -1 -5 -8 -8 -17 -8 -8 0 -13 -4 -9 -9 3 -5 1 -12 -5 -16 -5 -3 -10 -1 -10 6 0 7 -7 4 -16 -7 -11 -13 -17 -15 -20 -6 -3 6 -10 12 -15 12 -5 0 -8 -6 -6 -12 3 -17 -75 -12 -85 5 -6 9 -8 9 -8 0 0 -7 -4 -13 -10 -13 -5 0 -10 7 -10 15 0 8 -5 15 -11 15 -5 0 -7 5 -4 10 4 7 12 7 18 2 7 -5 24 -7 39 -6 15 2 30 -1 33 -7 4 -5 11 -9 16 -9 6 0 7 5 3 12 -5 7 0 9 14 6 12 -3 20 -3 19 1 -1 3 9 18 23 34 27 31 35 68 12 59 -10 -3 -13 -1 -8 6 4 7 1 12 -9 12 -9 0 -14 4 -11 9 3 5 -10 12 -29 15 -20 4 -33 11 -30 16 3 4 -3 6 -13 3 -12 -3 -32 8 -56 30 -40 39 -44 71 -12 119 15 23 21 26 38 17 15 -8 19 -8 14 0 -16 25 83 35 146 15z"/> <path d="M2923 3290 c-52 -23 -83 -70 -83 -126 0 -23 14 -97 31 -164 35 -139 34 -179 -7 -269 -13 -29 -24 -55 -24 -56 0 -2 20 -10 44 -18 l45 -15 6 31 c23 117 43 150 140 245 52 50 103 109 115 131 27 55 27 133 -2 178 -44 73 -175 104 -265 63z m117 -12 c0 -5 -4 -7 -9 -4 -4 3 -17 -1 -27 -9 -24 -19 -31 -18 -38 1 -3 8 -2 12 4 9 6 -3 10 -3 10 2 0 4 14 8 30 9 17 1 30 -3 30 -8z m30 -11 c0 7 14 4 40 -8 22 -11 40 -26 40 -35 0 -8 4 -13 9 -10 5 3 14 -8 20 -24 5 -17 8 -30 6 -30 -13 0 -35 14 -35 22 0 5 5 6 12 2 7 -4 8 -3 4 5 -6 9 -11 9 -22 0 -11 -9 -13 -6 -10 20 2 18 1 30 -1 27 -2 -2 -16 2 -31 10 -20 10 -28 11 -34 1 -4 -7 -8 -9 -8 -5 0 3 -3 15 -6 25 -5 15 -4 15 5 3 6 -9 11 -10 11 -3z m-135 -7 c-3 -5 -12 -10 -18 -10 -7 0 -6 4 3 10 19 12 23 12 15 0z m111 -39 c-11 -18 -36 -13 -36 7 0 10 3 22 7 26 10 10 37 -20 29 -33z m-76 -2 c0 -23 -28 -26 -37 -3 -6 16 15 37 29 28 4 -3 8 -14 8 -25z m-58 9 c-15 -15 -16 -32 -2 -23 14 8 12 -7 -3 -26 -13 -16 -47 -22 -47 -7 0 4 5 8 11 8 6 0 9 6 6 13 -7 18 12 47 30 47 13 0 14 -3 5 -12z m203 -18 c0 -8 -8 -16 -17 -18 -13 -2 -18 3 -18 18 0 15 5 20 18 18 9 -2 17 -10 17 -18z m-97 -42 c-4 -27 -23 -34 -32 -13 -8 21 1 35 20 35 10 0 14 -8 12 -22z m-63 -8 c0 -8 -8 -16 -17 -18 -13 -2 -18 3 -18 18 0 15 5 20 18 18 9 -2 17 -10 17 -18z m130 10 c3 -5 4 -14 0 -20 -8 -13 -35 -1 -35 16 0 16 26 19 35 4z m65 -24 c0 -20 -19 -31 -32 -18 -6 6 -7 15 -4 21 10 16 36 13 36 -3z m-257 -2 c-7 -3 -10 -11 -7 -19 3 -7 1 -16 -4 -19 -5 -3 -9 6 -9 19 0 17 5 25 16 24 9 0 11 -3 4 -5z m292 -27 c3 -16 0 -27 -10 -31 -8 -3 -13 -11 -10 -18 2 -7 -5 -24 -16 -37 -15 -18 -23 -21 -31 -13 -9 9 -9 12 1 12 7 0 18 6 24 13 15 15 18 47 4 47 -5 0 -3 8 6 18 10 10 17 25 17 32 0 21 10 5 15 -23z m-115 -1 c0 -20 -19 -31 -32 -18 -6 6 -7 15 -4 21 10 16 36 13 36 -3z m-130 -10 c0 -20 -19 -31 -32 -18 -6 6 -7 15 -4 21 10 16 36 13 36 -3z m58 -19 c2 -10 -3 -17 -12 -17 -18 0 -29 16 -21 31 9 14 29 6 33 -14z m132 -19 c0 -15 -32 -21 -40 -7 -13 20 9 43 26 28 8 -6 14 -16 14 -21z m-181 -13 c9 -2 20 -4 25 -4 5 -1 4 -7 -2 -14 -11 -13 -13 -57 -2 -54 3 1 15 -4 26 -11 12 -6 24 -8 28 -5 11 12 36 12 29 0 -4 -7 0 -8 12 -3 18 7 18 6 0 -14 -10 -11 -20 -18 -23 -16 -2 3 -25 -19 -51 -49 l-46 -53 -7 43 c-3 24 -9 52 -13 64 -6 19 -5 19 24 5 34 -17 72 -16 78 2 2 6 -6 11 -19 10 -13 -1 -32 3 -43 10 -11 6 -28 10 -37 9 -17 -3 -38 39 -38 77 0 15 5 18 21 13 12 -4 29 -9 38 -10z m101 0 c0 -8 -6 -15 -14 -15 -17 0 -28 14 -19 24 12 12 33 6 33 -9z m-30 -45 c0 -21 -24 -28 -35 -10 -8 14 3 30 21 30 8 0 14 -9 14 -20z m78 3 c5 -17 -26 -29 -40 -15 -6 6 -7 15 -3 22 9 14 37 9 43 -7z m-160 -230 c-5 -21 -14 -42 -18 -47 -5 -5 -6 -15 -3 -24 4 -10 2 -13 -5 -8 -7 4 -12 3 -12 -3 0 -5 6 -12 13 -14 6 -3 2 -6 -11 -6 -22 -1 -22 0 -7 35 8 20 12 41 8 47 -3 6 -1 7 5 3 8 -5 12 1 12 17 0 24 7 37 21 37 4 0 3 -17 -3 -37z"/> <path d="M1277 3083 l2 -218 57 -3 56 -3 -4 130 c-2 72 -1 131 2 131 3 0 12 -16 19 -37 27 -73 66 -128 92 -128 20 0 31 13 64 77 22 43 42 78 45 78 3 0 4 -56 2 -125 l-4 -125 56 0 56 0 0 220 0 220 -57 0 -58 0 -47 -90 c-45 -84 -57 -120 -40 -120 9 0 46 62 44 73 -1 4 3 7 9 7 6 0 8 7 5 16 -4 11 -2 15 8 11 9 -4 13 -1 10 7 -9 23 34 65 66 64 29 -1 33 -6 33 -43 0 -8 -1 -87 -2 -176 -1 -160 -1 -160 -23 -157 -22 3 -23 8 -26 104 -2 88 -5 104 -23 120 -20 18 -21 18 -38 -2 -9 -11 -23 -19 -31 -17 -12 4 -12 2 -2 -5 15 -10 7 -38 -14 -46 -7 -3 -11 -11 -8 -19 6 -17 -31 -53 -41 -38 -3 6 -1 11 5 11 6 0 8 5 5 10 -4 6 -11 7 -17 4 -6 -4 -9 -1 -6 7 3 8 -2 19 -11 26 -9 6 -16 19 -16 29 0 9 -12 26 -28 37 -25 19 -29 20 -43 6 -12 -12 -15 -41 -16 -122 -1 -110 -4 -116 -42 -101 -10 4 -16 18 -16 38 0 23 3 27 10 16 9 -14 7 25 -5 82 -2 10 1 21 7 24 7 4 6 9 -1 13 -8 5 -8 33 -2 97 5 49 7 92 5 95 -6 11 30 17 52 9 21 -8 86 -121 80 -142 -1 -7 -1 -10 1 -5 7 11 23 -2 19 -16 -1 -7 -1 -8 2 -4 2 4 10 3 18 -4 27 -22 15 11 -38 107 l-53 94 -60 0 -60 0 2 -217z"/> <path d="M1780 3080 l0 -220 60 0 60 0 0 220 0 220 -60 0 -60 0 0 -220z m87 -2 l1 -187 -26 2 -27 2 -2 175 c-1 96 0 181 2 188 3 7 15 12 27 10 23 -3 23 -4 25 -190z"/> <path d="M2605 2745 c-13 -5 -418 -20 -1090 -41 -291 -9 -531 -18 -533 -19 -1 -1 10 -26 25 -56 25 -49 31 -54 58 -52 93 8 409 38 755 73 532 55 607 62 778 75 45 4 82 11 82 16 0 9 -54 11 -75 4z m-856 -69 c-2 -2 -34 -7 -72 -10 -37 -4 -73 -9 -80 -11 -6 -2 -46 -7 -87 -10 -41 -3 -102 -9 -135 -13 -33 -4 -88 -7 -122 -7 -35 0 -64 -3 -65 -6 -2 -3 -31 -9 -65 -12 -49 -5 -65 -3 -77 9 -33 33 -20 44 52 44 96 1 417 11 419 14 2 1 55 3 119 4 64 1 115 0 113 -2z"/> <path d="M1068 2613 c7 -3 16 -2 19 1 4 3 -2 6 -13 5 -11 0 -14 -3 -6 -6z"/> <path d="M2992 2718 c-7 -7 -12 -20 -12 -30 0 -11 -7 -32 -15 -48 -18 -34 -53 -39 -109 -16 -38 16 -56 40 -48 68 3 12 0 17 -9 14 -8 -3 -102 -15 -209 -26 -367 -39 -465 -49 -620 -67 l-155 -17 95 -18 c82 -16 443 -96 790 -175 l105 -23 27 32 c67 80 188 278 188 308 0 14 -13 13 -28 -2z m-224 -54 c12 -4 22 -12 22 -18 0 -16 46 -56 65 -56 8 0 15 -6 15 -12 0 -8 3 -9 8 -3 4 6 15 11 24 11 15 1 14 -3 -5 -30 -13 -17 -29 -43 -37 -59 -10 -21 -19 -26 -34 -21 -12 3 -16 2 -10 -3 12 -9 15 -45 3 -37 -4 2 -11 -2 -16 -9 -7 -12 -21 -12 -93 3 -47 9 -78 20 -70 22 8 3 2 4 -13 2 -16 -2 -43 2 -61 10 -18 8 -57 17 -87 21 -30 4 -58 10 -64 14 -5 3 -19 6 -30 7 -11 1 -32 6 -47 12 -14 6 -35 11 -45 11 -21 -1 -59 7 -73 16 -5 3 -25 6 -44 7 -19 1 -33 5 -29 11 3 5 -3 7 -13 3 -11 -3 -41 1 -69 8 -27 8 -41 15 -30 16 11 1 76 8 145 16 208 24 262 28 332 29 36 0 61 3 55 7 -13 8 60 13 128 10 29 -2 36 0 25 8 -12 8 -12 10 5 10 11 0 30 -3 43 -6z"/> <path d="M1550 2569 c-41 -5 -163 -18 -270 -30 -107 -11 -197 -22 -199 -24 -14 -14 221 -261 238 -251 4 3 142 27 306 55 532 91 680 118 665 123 -39 13 -628 138 -645 137 -11 -1 -54 -5 -95 -10z m189 -35 c34 -8 67 -12 74 -8 8 6 8 3 -1 -9 -12 -14 -10 -15 21 -10 21 3 55 -1 83 -11 25 -8 50 -13 55 -11 4 3 10 2 13 -3 2 -4 17 -9 33 -10 15 -1 51 -11 78 -22 35 -15 41 -19 21 -16 -17 2 -41 0 -55 -6 -14 -5 -43 -11 -66 -13 -48 -6 -82 -12 -93 -18 -8 -5 -128 -20 -155 -19 -9 1 -15 -3 -13 -7 5 -8 -9 -10 -94 -11 -34 -1 -41 -3 -30 -11 12 -9 12 -10 -3 -5 -10 3 -26 2 -36 -3 -17 -10 -114 -23 -163 -24 -16 0 -28 -4 -28 -10 0 -6 -3 -7 -6 -4 -4 3 -16 1 -28 -5 -20 -10 -20 -10 -6 7 14 17 14 18 -7 6 -19 -10 -26 -8 -42 8 -11 11 -21 18 -23 16 -2 -2 -9 3 -16 11 -10 10 -10 14 -1 14 7 0 9 3 5 8 -4 4 -10 6 -12 5 -9 -6 -53 41 -47 50 3 6 1 7 -4 4 -12 -7 -46 27 -49 49 -3 19 6 22 86 28 36 3 88 9 115 12 28 4 73 6 100 6 36 -1 46 1 35 8 -13 8 -13 10 2 10 9 0 19 -6 21 -12 4 -10 8 -10 15 1 6 8 17 11 25 8 8 -3 28 -2 44 3 43 13 86 11 152 -6z"/> <path d="M2259 2373 c-128 -26 -615 -122 -758 -149 -13 -3 -40 -8 -60 -13 l-36 -8 73 -36 c84 -43 147 -68 252 -97 97 -28 317 -38 427 -20 96 15 259 67 344 110 99 51 261 163 249 173 -3 2 -77 19 -166 38 l-160 35 -165 -33z m171 -3 c-10 -6 -5 -9 20 -8 53 0 93 -6 117 -20 12 -7 32 -12 45 -12 41 0 67 -11 61 -26 -3 -8 -9 -11 -14 -8 -5 3 -9 1 -9 -4 0 -11 -58 -53 -78 -57 -10 -1 -16 -8 -14 -15 2 -8 -4 -11 -16 -8 -11 3 -26 1 -33 -4 -11 -8 -10 -8 4 -4 11 3 16 2 12 -4 -3 -6 -15 -10 -26 -10 -10 0 -19 -4 -19 -10 0 -5 -11 -10 -24 -10 -13 0 -29 -7 -36 -15 -7 -8 -16 -12 -21 -9 -13 7 -50 -6 -44 -16 6 -10 -73 -30 -91 -23 -8 3 -14 -1 -14 -8 0 -7 -3 -10 -6 -7 -3 3 -27 0 -53 -7 -26 -7 -62 -10 -80 -7 -19 2 -31 1 -28 -4 3 -5 -29 -10 -71 -11 -55 -2 -73 0 -62 8 11 7 8 8 -12 3 -32 -7 -198 14 -198 26 0 4 -7 11 -16 14 -14 5 -15 4 -4 -9 9 -10 -4 -8 -40 9 -29 13 -59 22 -66 19 -8 -3 -14 0 -14 6 0 5 -19 15 -42 21 -22 7 -47 18 -55 25 -11 11 -4 15 45 20 31 4 84 13 117 21 33 7 76 16 95 19 46 8 91 16 110 19 9 1 21 5 27 9 7 4 34 9 61 11 27 2 55 7 61 10 12 8 103 24 171 31 68 8 100 16 100 27 0 7 13 8 35 5 21 -3 33 -2 30 3 -3 6 7 8 24 6 17 -2 31 1 31 5 0 5 8 9 18 9 14 0 15 -2 2 -10z"/> </g> </svg>